<?xml version="1.0" standalone="no"?>
<!DOCTYPE svg PUBLIC "-//W3C//DTD SVG 20010904//EN"
 "http://www.w3.org/TR/2001/REC-SVG-20010904/DTD/svg10.dtd">
<svg version="1.0" xmlns="http://www.w3.org/2000/svg"
 width="1152.000000pt" height="1280.000000pt" viewBox="0 0 1152.000000 1280.000000"
 preserveAspectRatio="xMidYMid meet">
<metadata>
Created by potrace 1.15, written by Peter Selinger 2001-2017
</metadata>
<g transform="translate(0.000000,1280.000000) scale(0.100000,-0.100000)"
fill="#fff" stroke="none">
<path d="M5010 12743 c0 -34 11 -142 24 -240 14 -98 32 -257 41 -353 9 -96 38
-377 65 -625 28 -247 56 -511 62 -585 l13 -135 38 -3 c20 -2 37 1 37 6 0 5
-20 168 -45 363 -55 441 -97 815 -135 1209 -16 168 -34 321 -40 341 -5 19 -21
46 -35 59 l-25 23 0 -60z"/>
<path d="M7186 12562 c-3 -5 -28 -96 -56 -203 -28 -107 -85 -312 -125 -456
-88 -309 -250 -905 -276 -1014 -10 -42 -19 -100 -21 -130 -3 -49 -1 -54 19
-55 13 -1 25 6 28 15 2 9 34 133 71 276 87 345 212 805 328 1215 53 184 92
337 88 341 -13 13 -50 20 -56 11z"/>
<path d="M4525 12358 c12 -38 122 -559 180 -853 64 -327 125 -619 146 -697 8
-31 14 -38 34 -38 14 0 25 6 25 13 0 25 -30 177 -69 352 -22 99 -69 329 -106
510 -91 457 -141 658 -172 696 -25 30 -46 39 -38 17z"/>
<path d="M3260 12342 c0 -22 44 -134 103 -259 57 -121 587 -1306 679 -1518 34
-78 36 -80 72 -83 35 -3 37 -2 31 18 -15 47 -790 1766 -810 1797 -16 24 -75
60 -75 45z"/>
<path d="M5622 11596 c1 -393 5 -716 8 -719 3 -3 20 -8 39 -12 l34 -7 -7 113
c-3 63 -9 390 -12 727 l-7 612 -29 0 -30 0 4 -714z"/>
<path d="M6184 12090 c-19 -7 -22 -19 -27 -107 -4 -54 -13 -165 -22 -248 -8
-82 -15 -192 -15 -242 0 -90 1 -93 23 -93 25 0 22 -21 66 440 26 270 26 271
-25 250z"/>
<path d="M8764 11905 c-21 -23 -109 -153 -195 -290 -86 -138 -295 -470 -465
-740 -290 -462 -374 -603 -374 -632 0 -19 45 -16 62 5 9 9 118 184 243 387
275 447 415 669 609 963 140 214 174 282 164 328 -4 16 -10 13 -44 -21z"/>
<path d="M6595 11856 c-2 -6 -35 -175 -74 -376 -116 -603 -127 -684 -96 -697
9 -3 18 -3 22 0 9 10 30 109 74 347 22 124 51 277 65 340 27 132 64 343 64
370 0 20 -49 35 -55 16z"/>
<path d="M4030 11764 c1 -48 17 -109 105 -376 91 -280 100 -301 139 -337 l26
-24 0 43 c0 28 -31 134 -89 304 -93 275 -137 382 -164 405 -15 12 -17 10 -17
-15z"/>
<path d="M8068 11742 c-29 -26 -93 -146 -332 -625 -163 -325 -305 -618 -315
-650 -18 -52 -19 -59 -4 -64 9 -3 22 -2 29 3 7 5 121 226 253 492 132 265 267
533 300 596 65 122 114 239 109 264 -2 12 -12 8 -40 -16z"/>
<path d="M2935 11699 c9 -44 96 -203 337 -619 107 -184 235 -407 284 -494 92
-166 173 -269 182 -232 7 34 -20 105 -74 191 -69 110 -282 472 -474 805 -156
272 -196 333 -238 364 l-24 19 7 -34z"/>
<path d="M6095 11278 c-7 -19 -45 -348 -45 -390 0 -35 2 -38 28 -38 l28 0 17
128 c9 70 19 169 23 220 l6 92 -26 0 c-15 0 -29 -6 -31 -12z"/>
<path d="M7232 11185 c-29 -36 -87 -170 -160 -370 -31 -85 -44 -254 -18 -221
9 10 27 51 42 90 15 39 55 143 90 231 76 194 87 230 82 275 l-3 35 -33 -40z"/>
<path d="M1601 11128 c12 -18 75 -87 139 -153 64 -66 204 -214 310 -330 230
-248 341 -365 671 -701 l247 -252 27 22 27 22 -284 289 c-156 160 -435 448
-620 640 -373 389 -415 431 -473 469 -55 36 -72 34 -44 -6z"/>
<path d="M2570 10982 c0 -32 151 -242 399 -556 92 -116 192 -245 221 -286 30
-41 65 -88 78 -105 27 -33 80 -75 95 -75 14 0 1 79 -15 98 -8 9 -157 198 -331
418 -174 221 -337 423 -363 448 -47 48 -84 73 -84 58z"/>
<path d="M4320 10890 c0 -12 16 -71 36 -131 37 -110 47 -123 83 -100 18 11 10
50 -32 161 -29 76 -35 85 -59 88 -23 3 -28 -1 -28 -18z"/>
<path d="M8709 10671 c-24 -15 -69 -59 -99 -97 -30 -38 -127 -157 -216 -264
-88 -107 -184 -226 -212 -265 -51 -69 -51 -70 -29 -82 12 -7 27 -12 34 -13 6
0 61 64 121 143 60 78 169 214 241 302 72 88 142 176 156 195 22 33 59 110 52
110 -2 0 -23 -13 -48 -29z"/>
<path d="M9569 10646 c-55 -20 -82 -42 -235 -198 -130 -132 -184 -201 -170
-216 12 -12 109 67 263 214 140 134 210 215 186 214 -4 -1 -24 -7 -44 -14z"/>
<path d="M10261 10593 c-29 -15 -103 -68 -163 -117 -61 -49 -179 -138 -262
-199 -83 -60 -236 -176 -340 -256 -684 -528 -746 -579 -746 -619 0 -56 13 -53
105 25 329 275 579 470 1055 822 334 247 373 279 396 324 24 45 13 49 -45 20z"/>
<path d="M8989 10098 c-40 -28 -112 -89 -159 -134 -118 -114 -314 -313 -318
-323 -1 -4 9 -13 22 -19 24 -10 33 -3 164 121 76 73 178 168 228 213 56 51
100 101 118 133 15 29 26 54 24 57 -3 2 -38 -19 -79 -48z"/>

<path d="M1949 9773 c23 -45 257 -240 455 -382 169 -121 162 -118 170 -79 3
18 3 35 -1 39 -5 3 -62 47 -128 96 -66 49 -186 139 -266 199 -121 92 -206 144
-235 144 -2 0 0 -8 5 -17z"/>
<path d="M9896 9539 c-60 -33 -195 -111 -300 -173 -105 -62 -247 -144 -316
-181 -127 -70 -200 -127 -226 -176 -8 -16 -14 -30 -14 -33 0 -8 169 88 491
281 173 104 354 209 402 234 86 43 94 53 79 91 -6 15 -21 10 -116 -43z"/>
<path d="M1076 9409 c53 -56 116 -95 374 -234 140 -76 374 -203 520 -283 235
-130 336 -179 345 -170 2 2 6 14 10 28 6 24 -2 30 -132 99 -76 41 -266 144
-423 229 -437 237 -548 295 -632 330 -42 18 -80 32 -84 32 -4 0 5 -14 22 -31z"/>
<path d="M10990 9291 c-36 -10 -184 -74 -330 -143 -146 -68 -335 -155 -420
-193 -165 -73 -254 -125 -271 -157 -10 -19 -8 -19 23 -13 18 4 157 63 308 132
151 69 356 162 455 206 166 73 303 149 319 176 10 15 -7 13 -84 -8z"/>
<path d="M309 9076 c31 -33 96 -66 246 -126 72 -28 238 -98 370 -155 268 -114
413 -171 420 -164 2 3 6 15 7 27 3 26 -36 45 -372 184 -107 44 -271 113 -365
153 -150 64 -273 105 -315 105 -9 0 -6 -8 9 -24z"/>
<path d="M9650 8691 c-101 -38 -252 -114 -322 -164 -32 -22 -58 -42 -58 -44 0
-8 82 9 137 28 29 10 118 49 198 86 134 63 145 70 145 96 0 33 -6 33 -100 -2z"/>
<path d="M1580 8549 c0 -23 145 -96 308 -155 75 -27 97 -32 104 -22 26 41 -16
67 -226 144 -72 26 -186 46 -186 33z"/>
<path d="M10320 8441 c-344 -114 -390 -133 -430 -176 l-25 -27 30 7 c120 28
185 47 465 137 173 56 316 102 318 103 7 5 -12 65 -22 65 -6 0 -157 -49 -336
-109z"/>
<path d="M12 8201 c-8 -5 -12 -17 -10 -27 3 -15 44 -28 243 -76 685 -166 983
-227 997 -206 15 24 8 36 -24 47 -59 19 -429 109 -603 146 -93 21 -260 57
-369 81 -218 48 -215 48 -234 35z"/>
<path d="M9645 8193 c-16 -2 -52 -11 -80 -20 -78 -25 -156 -83 -112 -83 24 0
131 21 185 36 47 14 52 18 52 45 0 16 -3 28 -7 28 -5 -1 -21 -4 -38 -6z"/>
<path d="M10930 8044 c-316 -68 -699 -149 -850 -179 -412 -85 -483 -105 -521
-151 -13 -16 -10 -17 52 -11 60 5 325 60 909 188 129 28 406 86 615 128 l380
77 3 37 c2 20 0 36 -5 36 -4 -1 -267 -57 -583 -125z"/>
<path d="M1495 7849 c-9 -17 -15 -32 -13 -33 10 -8 258 -68 332 -81 122 -21
133 -20 138 10 5 22 0 26 -56 44 -34 11 -124 34 -201 51 -77 17 -150 33 -162
35 -17 4 -26 -2 -38 -26z"/>
<path d="M740 7467 c0 -30 -26 -24 290 -62 401 -48 763 -86 775 -81 7 2 15 14
18 25 4 17 -1 22 -31 31 -81 23 -737 99 -914 107 l-138 6 0 -26z"/>
<path d="M10175 7329 c-176 -15 -374 -34 -440 -41 -114 -12 -120 -14 -123 -37
-7 -47 -40 -48 698 24 334 33 320 30 320 60 0 24 -2 25 -67 24 -38 -1 -212
-14 -388 -30z"/>
<path d="M11055 7073 c-89 -4 -1303 -33 -1371 -33 -48 0 -52 -2 -57 -27 l-5
-26 267 7 c146 4 417 11 601 16 184 5 442 9 573 10 l237 0 0 30 0 30 -87 -2
c-49 -1 -119 -3 -158 -5z"/>
<path d="M780 6889 c-234 -5 -467 -11 -518 -15 l-93 -6 3 -26 3 -27 210 2
c116 2 483 6 818 9 l607 6 0 34 0 34 -302 -2 c-167 0 -494 -5 -728 -9z"/>
<path d="M1455 6495 c-289 -26 -529 -49 -689 -68 -96 -12 -100 -13 -107 -39
-7 -27 -6 -28 37 -28 25 0 176 13 337 30 269 27 621 57 742 63 48 2 50 3 50
32 0 29 -1 30 -50 32 -27 0 -171 -9 -320 -22z"/>
<path d="M9655 6501 l-40 -6 57 -29 c60 -29 148 -45 266 -46 l62 0 0 30 c0 17
-4 30 -9 30 -5 0 -43 4 -83 9 -106 14 -207 18 -253 12z"/>
<path d="M10220 6431 c0 -26 21 -41 55 -41 18 0 121 -11 231 -24 109 -14 232
-28 272 -31 l72 -7 0 26 c0 15 -6 28 -12 31 -7 2 -132 15 -278 29 -146 15
-282 28 -302 30 -31 3 -38 1 -38 -13z"/>
<path d="M1440 5970 c-80 -16 -208 -42 -285 -60 -77 -17 -225 -49 -330 -71
-170 -35 -733 -162 -777 -175 -21 -6 -26 -64 -5 -64 25 0 228 42 457 95 129
30 325 72 435 95 544 110 675 143 675 171 0 36 -22 37 -170 9z"/>
<path d="M9540 5975 c24 -29 69 -46 198 -75 70 -16 206 -47 302 -70 96 -23
324 -75 505 -116 182 -41 465 -109 630 -150 166 -40 304 -74 308 -74 4 0 7 15
7 34 l0 34 -192 46 c-106 25 -350 82 -543 125 -192 44 -480 111 -640 150 -280
68 -405 92 -529 105 -53 6 -58 5 -46 -9z"/>
<path d="M2005 5628 c-54 -7 -101 -22 -267 -87 -104 -41 -108 -44 -108 -72 0
-27 3 -30 23 -24 152 44 399 129 403 140 3 7 4 22 2 32 -3 16 -9 17 -53 11z"/>
<path d="M1085 5326 c-155 -52 -320 -111 -437 -156 -56 -21 -66 -32 -50 -57 8
-13 50 -2 455 128 l217 70 -6 27 c-4 15 -9 30 -13 34 -4 4 -78 -17 -166 -46z"/>
<path d="M9318 5336 c-6 -29 -18 -23 337 -169 127 -52 298 -124 380 -160 173
-75 242 -97 299 -97 l41 1 -25 20 c-36 30 -111 67 -225 109 -55 21 -181 74
-280 118 -273 121 -479 202 -515 202 -4 0 -10 -11 -12 -24z"/>
<path d="M2150 5230 c-45 -9 -75 -22 -421 -173 -361 -158 -392 -174 -385 -193
3 -9 6 -20 6 -26 0 -20 60 1 233 81 95 44 252 116 350 160 152 69 287 143 287
157 0 5 -28 3 -70 -6z"/>
<path d="M9150 5001 c0 -11 60 -65 110 -98 25 -17 140 -80 255 -140 116 -60
254 -135 307 -166 77 -46 211 -107 233 -107 2 0 5 12 7 28 3 25 -4 31 -87 76
-49 26 -231 125 -403 218 -202 111 -332 175 -367 183 -30 7 -55 10 -55 6z"/>
<path d="M2430 4856 c-66 -19 -98 -37 -421 -239 -162 -101 -376 -234 -476
-296 -172 -106 -182 -114 -172 -134 7 -12 13 -23 14 -25 9 -10 229 119 535
313 140 89 278 175 305 190 91 52 189 122 230 164 21 23 37 41 35 40 -3 0 -25
-6 -50 -13z"/>
<path d="M8840 4536 c0 -26 76 -91 340 -288 151 -113 363 -274 470 -358 178
-140 291 -212 308 -196 15 15 -32 66 -129 140 -57 44 -221 170 -364 281 -539
417 -523 405 -587 423 -29 8 -38 7 -38 -2z"/>
<path d="M2557 4480 c-31 -21 -333 -259 -670 -527 -336 -269 -642 -512 -680
-542 -58 -46 -127 -125 -127 -146 0 -13 54 6 95 34 22 15 214 164 425 332 424
336 628 496 857 673 97 74 155 125 157 139 11 50 13 77 7 77 -3 0 -32 -18 -64
-40z"/>
<path d="M10329 4337 c26 -27 86 -68 150 -103 58 -31 137 -75 174 -97 106 -60
181 -95 226 -106 100 -22 10 58 -179 161 -192 105 -337 175 -380 183 l-35 7
44 -45z"/>
<path d="M2792 4204 c-58 -29 -125 -87 -265 -231 -80 -82 -98 -105 -92 -122 3
-12 10 -21 14 -21 11 0 139 107 259 218 88 81 153 164 139 178 -2 2 -26 -8
-55 -22z"/>
<path d="M8480 4111 c0 -5 195 -207 433 -448 237 -241 546 -554 684 -696 237
-240 313 -307 313 -275 0 34 -80 122 -540 594 -273 280 -544 561 -604 624
-181 193 -201 210 -247 210 -21 0 -39 -4 -39 -9z"/>
<path d="M3250 3894 c-53 -35 -136 -124 -233 -249 -112 -143 -403 -497 -617
-750 -76 -90 -152 -184 -170 -210 -31 -44 -66 -135 -53 -135 3 0 20 9 38 20
32 20 133 140 405 480 166 207 378 465 521 631 105 123 147 190 137 219 -2 6
-14 3 -28 -6z"/>
<path d="M8190 3833 c0 -19 59 -108 167 -250 108 -143 118 -154 142 -148 14 4
28 8 30 11 5 5 -58 100 -129 194 -82 107 -210 225 -210 193z"/>
<path d="M2252 3700 c-57 -35 -214 -193 -233 -235 -10 -22 -16 -41 -14 -43 16
-17 305 223 305 253 0 19 -11 45 -19 45 -3 0 -21 -9 -39 -20z"/>
<path d="M3544 3581 c-35 -16 -52 -38 -139 -177 -54 -87 -209 -332 -344 -544
-135 -212 -314 -495 -397 -630 l-152 -245 26 -22 c21 -18 29 -20 39 -10 7 7
66 100 131 207 247 405 589 952 719 1149 115 174 172 275 160 287 -1 2 -21 -5
-43 -15z"/>
<path d="M7740 3497 c0 -35 37 -109 143 -289 63 -106 167 -285 232 -398 155
-268 284 -480 294 -480 4 0 16 8 25 19 16 18 3 42 -295 547 -171 291 -323 544
-336 561 -29 40 -63 61 -63 40z"/>
<path d="M3916 3408 c-54 -73 -498 -989 -485 -1002 2 -3 15 -7 29 -11 23 -6
28 0 69 92 49 108 225 461 351 702 68 131 80 162 80 203 0 26 -4 48 -9 48 -6
0 -21 -15 -35 -32z"/>
<path d="M7374 3278 c13 -29 115 -253 228 -498 112 -245 278 -613 368 -819
130 -294 173 -381 200 -409 31 -30 35 -32 38 -14 7 44 -97 288 -468 1097 -103
226 -216 473 -252 550 l-63 140 -38 3 -37 3 24 -53z"/>
<path d="M8665 3229 c49 -97 338 -471 375 -487 4 -1 11 8 18 22 10 21 1 35
-100 162 -139 175 -219 265 -270 306 l-40 32 17 -35z"/>
<path d="M4323 3228 c-11 -13 -30 -41 -40 -63 -41 -83 -112 -326 -113 -384 0
-23 1 -23 19 -7 29 27 66 102 114 236 44 123 69 240 50 240 -5 0 -19 -10 -30
-22z"/>
<path d="M7137 2913 c-10 -3 -16 -10 -14 -16 84 -198 247 -661 307 -874 21
-72 21 -73 54 -73 l33 0 -8 46 c-12 65 -40 151 -93 288 -26 66 -67 185 -92
265 -55 180 -75 234 -114 311 -30 59 -35 63 -73 53z"/>
<path d="M4039 2523 c-6 -16 -30 -84 -54 -153 -24 -69 -70 -197 -103 -285 -71
-193 -89 -252 -98 -328 -8 -71 4 -73 39 -9 28 52 244 620 271 714 9 32 19 64
22 73 5 12 -2 15 -30 15 -31 0 -38 -4 -47 -27z"/>
<path d="M4421 2422 c-45 -172 -101 -425 -95 -434 3 -4 15 -8 28 -8 20 0 26
14 66 158 73 265 103 382 99 386 -2 2 -18 6 -35 9 l-32 6 -31 -117z"/>
</g>
</svg>
